<svg width="652" height="712" viewBox="0 0 652 712" fill="none" xmlns="http://www.w3.org/2000/svg">
<g filter="url(#filter0_d_354_534)">
<path d="M354.737 371.699L295.994 381.965" stroke="#FFC423"/>
<path d="M324.844 351.805L332.993 398.433" stroke="#FFC423"/>
<path d="M336.808 382.477L318.009 369.38" stroke="#FFC423"/>
<path d="M320.788 385.276L334.031 366.581" stroke="#FFC423"/>
<path d="M336.623 381.417L353.669 371.886L334.03 366.581L324.844 351.805L318.009 369.381L295.994 381.965L320.787 385.277L332.993 398.433L336.623 381.417Z" stroke="#FFC423"/>
<path d="M236.256 398.815L231.266 354.045" stroke="#FFC423"/>
<path d="M252.654 377.208L217.117 381.169" stroke="#FFC423"/>
<path d="M228.969 384.794L239.723 371.233" stroke="#FFC423"/>
<path d="M227.609 372.583L241.085 383.443" stroke="#FFC423"/>
<path d="M229.778 384.703L236.166 398.001L241.085 383.443L252.655 377.209L239.724 371.233L231.267 354.045L227.609 372.583L217.118 381.169L229.778 384.703Z" stroke="#FFC423"/>
<path d="M413 282.663L346.781 294.236" stroke="#FFC423"/>
<path d="M378.278 260.336L387.538 313.323" stroke="#FFC423"/>
<path d="M393.119 294.874L370.931 281.278" stroke="#FFC423"/>
<path d="M373.895 298.234L390.157 277.919" stroke="#FFC423"/>
<path d="M391.977 293.932L410.888 283.181L389.03 277.073L378.753 260.253L371.229 280.184L346.805 294.38L374.386 298.247L388.013 313.24L391.977 293.932Z" stroke="#FFC423"/>
<circle cx="468.462" cy="190.643" r="8.17394" transform="rotate(80.0871 468.462 190.643)" stroke="#FFC423"/>
<circle cx="220.239" cy="495.983" r="8.17394" transform="rotate(80.0871 220.239 495.983)" stroke="#FFC423"/>
<circle cx="124.242" cy="530.762" r="8.17394" transform="rotate(80.0871 124.242 530.762)" stroke="#FFC423"/>
<path d="M560.789 171.008L510.59 179.781" stroke="#FFC423" stroke-width="0.5"/>
<path d="M530.892 151.115L539.599 200.922" stroke="#FFC423" stroke-width="0.5"/>
<path d="M540.638 169.07L530.741 181.72" stroke="#FFC423" stroke-width="0.5"/>
<path d="M528.889 171.123L542.489 179.667" stroke="#FFC423" stroke-width="0.5"/>
<path d="M542.49 179.667L560.789 171.009L540.638 169.07L530.896 151.114L528.889 171.123L510.59 179.781L530.741 181.72L539.6 200.922L542.49 179.667Z" stroke="#FFC423" stroke-width="0.5"/>
<path d="M274.052 444.915L240.732 450.737" stroke="#FFC423" stroke-width="0.5"/>
<path d="M254.208 431.709L259.987 464.769" stroke="#FFC423" stroke-width="0.5"/>
<path d="M260.677 443.627L254.108 452.024" stroke="#FFC423" stroke-width="0.5"/>
<path d="M252.879 444.99L261.906 450.661" stroke="#FFC423" stroke-width="0.5"/>
<path d="M261.906 450.662L274.052 444.915L260.677 443.628L254.21 431.71L252.879 444.99L240.733 450.737L254.108 452.024L259.988 464.77L261.906 450.662Z" stroke="#FFC423" stroke-width="0.5"/>
<path d="M306.728 308.677L273.408 314.5" stroke="#FFC423" stroke-width="0.5"/>
<path d="M286.884 295.472L292.663 328.532" stroke="#FFC423" stroke-width="0.5"/>
<path d="M293.353 307.39L286.784 315.787" stroke="#FFC423" stroke-width="0.5"/>
<path d="M285.555 308.753L294.582 314.424" stroke="#FFC423" stroke-width="0.5"/>
<path d="M294.582 314.424L306.728 308.677L293.352 307.39L286.886 295.472L285.554 308.753L273.408 314.5L286.784 315.787L292.664 328.532L294.582 314.424Z" stroke="#FFC423" stroke-width="0.5"/>
<path d="M443.354 233.673L410.84 224.529" stroke="#FFC423" stroke-width="0.5"/>
<path d="M431.299 213.197L422.003 245.497" stroke="#FFC423" stroke-width="0.5"/>
<path d="M431.891 226.735L422.303 231.467" stroke="#FFC423" stroke-width="0.5"/>
<path d="M424.28 224.595L429.912 233.607" stroke="#FFC423" stroke-width="0.5"/>
<path d="M429.912 233.607L443.353 233.673L431.891 226.735L431.301 213.198L424.281 224.595L410.84 224.529L422.303 231.467L422.003 245.497L429.912 233.607Z" stroke="#FFC423" stroke-width="0.5"/>
<path d="M199.082 542.725L166.569 533.581" stroke="#FFC423" stroke-width="0.5"/>
<path d="M187.026 522.249L177.731 554.549" stroke="#FFC423" stroke-width="0.5"/>
<path d="M187.619 535.787L178.031 540.519" stroke="#FFC423" stroke-width="0.5"/>
<path d="M180.009 533.647L185.64 542.659" stroke="#FFC423" stroke-width="0.5"/>
<path d="M185.641 542.659L199.082 542.725L187.619 535.787L187.029 522.25L180.01 533.647L166.569 533.581L178.031 540.519L177.732 554.549L185.641 542.659Z" stroke="#FFC423" stroke-width="0.5"/>
<path d="M214.346 468.598L181.832 459.454" stroke="#FFC423" stroke-width="0.5"/>
<path d="M202.292 448.122L192.996 480.421" stroke="#FFC423" stroke-width="0.5"/>
<path d="M202.884 461.659L193.296 466.391" stroke="#FFC423" stroke-width="0.5"/>
<path d="M195.274 459.52L200.906 468.532" stroke="#FFC423" stroke-width="0.5"/>
<path d="M200.906 468.532L214.347 468.598L202.884 461.66L202.294 448.122L195.274 459.52L181.833 459.454L193.296 466.392L192.996 480.422L200.906 468.532Z" stroke="#FFC423" stroke-width="0.5"/>
<path d="M200.905 468.532L214.346 468.598L202.883 461.66L202.293 448.122L195.273 459.52L181.832 459.454L193.295 466.392L192.995 480.422L200.905 468.532Z" stroke="#FFC423" stroke-width="0.5"/>
<path d="M503.198 143.008L470.685 133.864" stroke="#FFC423" stroke-width="0.5"/>
<path d="M491.144 122.532L481.848 154.832" stroke="#FFC423" stroke-width="0.5"/>
<path d="M491.735 136.07L482.148 140.802" stroke="#FFC423" stroke-width="0.5"/>
<path d="M484.125 133.931L489.756 142.943" stroke="#FFC423" stroke-width="0.5"/>
<path d="M489.757 142.942L503.198 143.008L491.735 136.07L491.146 122.533L484.126 133.93L470.685 133.864L482.148 140.802L481.848 154.832L489.757 142.942Z" stroke="#FFC423" stroke-width="0.5"/>
<path d="M124.636 586.699L92.1224 577.555" stroke="#FFC423" stroke-width="0.5"/>
<path d="M112.581 566.223L103.285 598.523" stroke="#FFC423" stroke-width="0.5"/>
<path d="M113.173 579.761L103.585 584.493" stroke="#FFC423" stroke-width="0.5"/>
<path d="M105.562 577.621L111.194 586.633" stroke="#FFC423" stroke-width="0.5"/>
<path d="M111.195 586.633L124.636 586.699L113.173 579.761L112.583 566.223L105.563 577.621L92.1223 577.555L103.585 584.493L103.285 598.523L111.195 586.633Z" stroke="#FFC423" stroke-width="0.5"/>
<circle cx="560.138" cy="129.494" r="6.00546" transform="rotate(80.0871 560.138 129.494)" stroke="#FFC423"/>
<circle cx="282.818" cy="406.898" r="3.00273" transform="rotate(80.0871 282.818 406.898)" stroke="#FFC423" stroke-width="0.5"/>
<circle cx="335.836" cy="326.089" r="3.00273" transform="rotate(80.0871 335.836 326.089)" stroke="#FFC423" stroke-width="0.5"/>
<circle cx="153.521" cy="580.287" r="2.75273" transform="rotate(80.0871 153.521 580.287)" stroke="#FFC423"/>
<circle cx="179.939" cy="504.392" r="2.75273" transform="rotate(80.0871 179.939 504.392)" stroke="#FFC423"/>
<circle cx="409.748" cy="313.932" r="2.75273" transform="rotate(80.0871 409.748 313.932)" stroke="#FFC423"/>
</g>
<defs>
<filter id="filter0_d_354_534" x="80.1187" y="117.608" width="497.626" height="499.869" filterUnits="userSpaceOnUse" color-interpolation-filters="sRGB">
<feFlood flood-opacity="0" result="BackgroundImageFix"/>
<feColorMatrix in="SourceAlpha" type="matrix" values="0 0 0 0 0 0 0 0 0 0 0 0 0 0 0 0 0 0 127 0" result="hardAlpha"/>
<feOffset dy="7"/>
<feGaussianBlur stdDeviation="5.55"/>
<feComposite in2="hardAlpha" operator="out"/>
<feColorMatrix type="matrix" values="0 0 0 0 0.956315 0 0 0 0 0.927279 0 0 0 0 0.375584 0 0 0 1 0"/>
<feBlend mode="normal" in2="BackgroundImageFix" result="effect1_dropShadow_354_534"/>
<feBlend mode="normal" in="SourceGraphic" in2="effect1_dropShadow_354_534" result="shape"/>
</filter>
</defs>
</svg>
