<svg width="695" height="649" viewBox="0 0 695 649" fill="none" xmlns="http://www.w3.org/2000/svg">
<g filter="url(#filter0_d_354_457)">
<path d="M335.111 352.148L320.039 299.254" stroke="#FFC423"/>
<path d="M350.481 322.813L308.496 334.778" stroke="#FFC423"/>
<path d="M323.499 336.741L333.702 318.236" stroke="#FFC423"/>
<path d="M319.389 322.315L337.813 332.662" stroke="#FFC423"/>
<path d="M324.453 336.469L334.837 351.187L337.812 332.662L350.481 322.813L333.701 318.236L320.039 299.254L319.388 322.315L308.495 334.777L324.453 336.469Z" stroke="#FFC423"/>
<path d="M298.831 246.082L339.417 237.194" stroke="#FFC423"/>
<path d="M320.229 259.043L313.174 226.828" stroke="#FFC423"/>
<path d="M310.991 238.048L324.465 246.606" stroke="#FFC423"/>
<path d="M322.06 235.624L313.396 249.03" stroke="#FFC423"/>
<path d="M311.152 238.78L299.569 245.92L313.396 249.031L320.229 259.044L324.465 246.607L339.417 237.194L322.06 235.624L313.174 226.828L311.152 238.78Z" stroke="#FFC423"/>
<path d="M422.391 397.018L405.4 337.392" stroke="#FFC423"/>
<path d="M439.527 363.02L391.816 376.616" stroke="#FFC423"/>
<path d="M409.275 379.959L419.61 358.297" stroke="#FFC423"/>
<path d="M404.343 362.648L424.543 375.608" stroke="#FFC423"/>
<path d="M410.03 378.82L421.712 395.132L425.211 374.494L439.649 363.448L420.643 358.465L405.27 337.429L404.378 363.1L391.938 377.043L410.03 378.82Z" stroke="#FFC423"/>
<circle cx="512.137" cy="439.031" r="7.5" transform="rotate(164.095 512.137 439.031)" stroke="#FFC423"/>
<circle cx="208.161" cy="240.744" r="7.5" transform="rotate(164.095 208.161 240.744)" stroke="#FFC423"/>
<circle cx="167.015" cy="156.039" r="7.5" transform="rotate(164.095 167.015 156.039)" stroke="#FFC423"/>
<path d="M539.037 521.83L526.157 476.629" stroke="#FFC423" stroke-width="0.5"/>
<path d="M554.406 492.492L509.558 505.274" stroke="#FFC423" stroke-width="0.5"/>
<path d="M538.876 503.159L526.319 495.299" stroke="#FFC423" stroke-width="0.5"/>
<path d="M535.861 492.58L529.334 505.878" stroke="#FFC423" stroke-width="0.5"/>
<path d="M529.333 505.878L539.037 521.83L538.875 503.159L554.407 492.494L535.861 492.58L526.157 476.629L526.319 495.299L509.559 505.274L529.333 505.878Z" stroke="#FFC423" stroke-width="0.5"/>
<path d="M260.185 285.188L251.635 255.186" stroke="#FFC423" stroke-width="0.5"/>
<path d="M270.386 265.715L240.618 274.199" stroke="#FFC423" stroke-width="0.5"/>
<path d="M260.077 272.795L251.743 267.578" stroke="#FFC423" stroke-width="0.5"/>
<path d="M258.076 265.773L253.743 274.6" stroke="#FFC423" stroke-width="0.5"/>
<path d="M253.743 274.6L260.184 285.188L260.077 272.796L270.386 265.717L258.076 265.774L251.635 255.186L251.743 267.579L240.618 274.2L253.743 274.6Z" stroke="#FFC423" stroke-width="0.5"/>
<path d="M388.296 302.042L379.747 272.04" stroke="#FFC423" stroke-width="0.5"/>
<path d="M398.497 282.569L368.729 291.054" stroke="#FFC423" stroke-width="0.5"/>
<path d="M388.188 289.65L379.854 284.433" stroke="#FFC423" stroke-width="0.5"/>
<path d="M386.188 282.628L381.855 291.454" stroke="#FFC423" stroke-width="0.5"/>
<path d="M381.855 291.455L388.296 302.043L388.188 289.65L398.498 282.571L386.188 282.628L379.747 272.041L379.854 284.433L368.729 291.054L381.855 291.455Z" stroke="#FFC423" stroke-width="0.5"/>
<path d="M470.25 420.144L475.507 389.44" stroke="#FFC423" stroke-width="0.5"/>
<path d="M487.871 407.116L457.349 401.699" stroke="#FFC423" stroke-width="0.5"/>
<path d="M475.511 408.962L470.247 400.623" stroke="#FFC423" stroke-width="0.5"/>
<path d="M476.74 401.776L469.016 407.809" stroke="#FFC423" stroke-width="0.5"/>
<path d="M469.016 407.809L470.25 420.144L475.51 408.962L487.871 407.117L476.741 401.776L475.507 389.441L470.247 400.623L457.349 401.699L469.016 407.809Z" stroke="#FFC423" stroke-width="0.5"/>
<path d="M163.248 225.837L168.505 195.134" stroke="#FFC423" stroke-width="0.5"/>
<path d="M180.869 212.809L150.347 207.392" stroke="#FFC423" stroke-width="0.5"/>
<path d="M168.509 214.655L163.245 206.316" stroke="#FFC423" stroke-width="0.5"/>
<path d="M169.738 207.469L162.014 213.502" stroke="#FFC423" stroke-width="0.5"/>
<path d="M162.014 213.502L163.248 225.838L168.508 214.655L180.869 212.811L169.739 207.469L168.505 195.134L163.245 206.316L150.347 207.392L162.014 213.502Z" stroke="#FFC423" stroke-width="0.5"/>
<path d="M232.713 232.703L237.97 201.999" stroke="#FFC423" stroke-width="0.5"/>
<path d="M250.334 219.675L219.811 214.258" stroke="#FFC423" stroke-width="0.5"/>
<path d="M237.973 221.521L232.709 213.182" stroke="#FFC423" stroke-width="0.5"/>
<path d="M239.203 214.335L231.479 220.368" stroke="#FFC423" stroke-width="0.5"/>
<path d="M231.479 220.368L232.713 232.703L237.973 221.521L250.334 219.677L239.204 214.335L237.97 202L232.71 213.182L219.812 214.258L231.479 220.368Z" stroke="#FFC423" stroke-width="0.5"/>
<path d="M231.478 220.368L232.712 232.703L237.972 221.521L250.333 219.677L239.203 214.335L237.969 202L232.709 213.182L219.811 214.258L231.478 220.368Z" stroke="#FFC423" stroke-width="0.5"/>
<path d="M559.175 466.308L564.432 435.604" stroke="#FFC423" stroke-width="0.5"/>
<path d="M576.796 453.279L546.273 447.863" stroke="#FFC423" stroke-width="0.5"/>
<path d="M564.436 455.125L559.172 446.787" stroke="#FFC423" stroke-width="0.5"/>
<path d="M565.665 447.939L557.941 453.973" stroke="#FFC423" stroke-width="0.5"/>
<path d="M557.941 453.973L559.175 466.308L564.435 455.125L576.796 453.281L565.666 447.94L564.432 435.604L559.171 446.787L546.273 447.863L557.941 453.973Z" stroke="#FFC423" stroke-width="0.5"/>
<path d="M115.745 161.786L121.002 131.082" stroke="#FFC423" stroke-width="0.5"/>
<path d="M133.366 148.757L102.844 143.341" stroke="#FFC423" stroke-width="0.5"/>
<path d="M121.006 150.604L115.742 142.265" stroke="#FFC423" stroke-width="0.5"/>
<path d="M122.235 143.417L114.511 149.451" stroke="#FFC423" stroke-width="0.5"/>
<path d="M114.511 149.451L115.745 161.786L121.006 150.603L133.366 148.759L122.236 143.418L121.002 131.082L115.742 142.265L102.844 143.341L114.511 149.451Z" stroke="#FFC423" stroke-width="0.5"/>
<circle cx="577.054" cy="517.235" r="5.5" transform="rotate(164.095 577.054 517.235)" stroke="#FFC423"/>
<circle cx="295.899" cy="289.568" r="2.75" transform="rotate(164.095 295.899 289.568)" stroke="#FFC423" stroke-width="0.5"/>
<circle cx="375.128" cy="330.42" r="2.75" transform="rotate(164.095 375.128 330.42)" stroke="#FFC423" stroke-width="0.5"/>
<circle cx="124.408" cy="187.664" r="2.5" transform="rotate(164.095 124.408 187.664)" stroke="#FFC423"/>
<circle cx="196.567" cy="204.589" r="2.5" transform="rotate(164.095 196.567 204.589)" stroke="#FFC423"/>
<circle cx="393.395" cy="397.046" r="2.5" transform="rotate(164.095 393.395 397.046)" stroke="#FFC423"/>
</g>
<defs>
<filter id="filter0_d_354_457" x="90.8658" y="126.057" width="503.29" height="415.28" filterUnits="userSpaceOnUse" color-interpolation-filters="sRGB">
<feFlood flood-opacity="0" result="BackgroundImageFix"/>
<feColorMatrix in="SourceAlpha" type="matrix" values="0 0 0 0 0 0 0 0 0 0 0 0 0 0 0 0 0 0 127 0" result="hardAlpha"/>
<feOffset dy="7"/>
<feGaussianBlur stdDeviation="5.55"/>
<feComposite in2="hardAlpha" operator="out"/>
<feColorMatrix type="matrix" values="0 0 0 0 0.956315 0 0 0 0 0.927279 0 0 0 0 0.375584 0 0 0 1 0"/>
<feBlend mode="normal" in2="BackgroundImageFix" result="effect1_dropShadow_354_457"/>
<feBlend mode="normal" in="SourceGraphic" in2="effect1_dropShadow_354_457" result="shape"/>
</filter>
</defs>
</svg>
