<svg width="102" height="132" viewBox="0 0 102 132" fill="none" xmlns="http://www.w3.org/2000/svg">
<path d="M39 0L47.756 28.3303H76.0912L53.1676 45.8394L61.9236 74.1697L39 56.6606L16.0764 74.1697L24.8324 45.8394L1.90879 28.3303H30.244L39 0Z" fill="#F4EC60"/>
<path d="M82 67L86.4903 80.8197H101.021L89.2654 89.3607L93.7557 103.18L82 94.6393L70.2443 103.18L74.7346 89.3607L62.9789 80.8197H77.5097L82 67Z" fill="#F4EC60"/>
<path d="M41 82L46.6129 99.2746H64.7764L50.0818 109.951L55.6946 127.225L41 116.549L26.3054 127.225L31.9182 109.951L17.2236 99.2746H35.3871L41 82Z" fill="#F4EC60"/>
</svg>
