<svg width="109" height="128" viewBox="0 0 109 128" fill="none" xmlns="http://www.w3.org/2000/svg">
<path d="M42 0L51.4296 30.4033H81.9444L57.2574 49.1935L66.687 79.5967L42 60.8065L17.313 79.5967L26.7426 49.1935L2.05563 30.4033H32.5704L42 0Z" fill="#F4EC60"/>
<path d="M81 72L87.2864 91.3475H107.63L91.1716 103.305L97.458 122.652L81 110.695L64.542 122.652L70.8284 103.305L54.3704 91.3475H74.7136L81 72Z" fill="#F4EC60"/>
<path d="M23 82L28.1638 97.8926H44.8743L31.3552 107.715L36.5191 123.607L23 113.785L9.48094 123.607L14.6448 107.715L1.1257 97.8926H17.8362L23 82Z" fill="#F4EC60"/>
</svg>
