<svg width="685" height="739" viewBox="0 0 685 739" fill="none" xmlns="http://www.w3.org/2000/svg">
<g filter="url(#filter0_d_354_611)">
<path d="M372.016 383.199L314.079 397.323" stroke="#FFC423"/>
<path d="M340.873 365.323L352.084 411.312" stroke="#FFC423"/>
<path d="M354.837 395.138L335.215 383.312" stroke="#FFC423"/>
<path d="M339.037 398.989L351.016 379.46" stroke="#FFC423"/>
<path d="M354.583 394.093L370.962 383.456L351.016 379.46L340.873 365.323L335.215 383.312L314.078 397.323L339.037 398.99L352.084 411.312L354.583 394.093Z" stroke="#FFC423"/>
<path d="M255.585 418.082L247.649 373.739" stroke="#FFC423"/>
<path d="M270.521 395.439L235.322 401.739" stroke="#FFC423"/>
<path d="M247.387 404.572L257.222 390.331" stroke="#FFC423"/>
<path d="M245.223 392.479L259.387 402.425" stroke="#FFC423"/>
<path d="M248.188 404.429L255.441 417.276L259.388 402.425L270.521 395.44L257.223 390.331L247.649 373.74L245.224 392.479L235.323 401.739L248.188 404.429Z" stroke="#FFC423"/>
<path d="M424.271 290.509L358.96 306.43" stroke="#FFC423"/>
<path d="M388.151 270.524L400.891 322.784" stroke="#FFC423"/>
<path d="M405.241 304.006L382.203 291.905" stroke="#FFC423"/>
<path d="M386.281 308.628L401.165 287.283" stroke="#FFC423"/>
<path d="M404.038 303.142L422.198 291.165L399.985 286.514L388.619 270.41L382.428 290.794L358.995 306.572L386.771 308.609L401.358 322.67L404.038 303.142Z" stroke="#FFC423"/>
<circle cx="473.534" cy="195.026" r="8.17394" transform="rotate(76.3001 473.534 195.026)" stroke="#FFC423"/>
<circle cx="246.02" cy="516.095" r="8.17394" transform="rotate(76.3001 246.02 516.095)" stroke="#FFC423"/>
<circle cx="152.529" cy="557.139" r="8.17394" transform="rotate(76.3001 152.529 557.139)" stroke="#FFC423"/>
<path d="M564.363 169.337L514.854 181.406" stroke="#FFC423" stroke-width="0.5"/>
<path d="M533.218 151.462L545.196 200.585" stroke="#FFC423" stroke-width="0.5"/>
<path d="M544.128 168.733L535.088 182.01" stroke="#FFC423" stroke-width="0.5"/>
<path d="M532.54 171.559L546.675 179.186" stroke="#FFC423" stroke-width="0.5"/>
<path d="M546.676 179.185L564.363 169.337L544.128 168.733L533.221 151.461L532.541 171.558L514.853 181.406L535.089 182.01L545.196 200.585L546.676 179.185Z" stroke="#FFC423" stroke-width="0.5"/>
<path d="M296.343 461.584L263.481 469.595" stroke="#FFC423" stroke-width="0.5"/>
<path d="M275.67 449.719L283.62 482.324" stroke="#FFC423" stroke-width="0.5"/>
<path d="M282.912 461.184L276.912 469.996" stroke="#FFC423" stroke-width="0.5"/>
<path d="M275.221 463.059L284.603 468.121" stroke="#FFC423" stroke-width="0.5"/>
<path d="M284.603 468.121L296.343 461.584L282.912 461.183L275.673 449.719L275.221 463.058L263.481 469.595L276.912 469.996L283.621 482.325L284.603 468.121Z" stroke="#FFC423" stroke-width="0.5"/>
<path d="M319.948 323.485L287.086 331.496" stroke="#FFC423" stroke-width="0.5"/>
<path d="M299.275 311.62L307.226 344.226" stroke="#FFC423" stroke-width="0.5"/>
<path d="M306.518 323.085L300.518 331.897" stroke="#FFC423" stroke-width="0.5"/>
<path d="M298.826 324.96L308.208 330.023" stroke="#FFC423" stroke-width="0.5"/>
<path d="M308.208 330.022L319.948 323.485L306.517 323.085L299.278 311.62L298.826 324.96L287.086 331.496L300.517 331.897L307.226 344.226L308.208 330.022Z" stroke="#FFC423" stroke-width="0.5"/>
<path d="M451.322 239.621L418.276 232.645" stroke="#FFC423" stroke-width="0.5"/>
<path d="M437.941 219.986L430.799 252.83" stroke="#FFC423" stroke-width="0.5"/>
<path d="M439.426 233.455L430.172 238.81" stroke="#FFC423" stroke-width="0.5"/>
<path d="M431.691 231.822L437.906 240.443" stroke="#FFC423" stroke-width="0.5"/>
<path d="M437.906 240.443L451.322 239.621L439.426 233.455L437.944 219.986L431.692 231.822L418.276 232.645L430.172 238.81L430.8 252.829L437.906 240.443Z" stroke="#FFC423" stroke-width="0.5"/>
<path d="M227.996 564.133L194.95 557.156" stroke="#FFC423" stroke-width="0.5"/>
<path d="M214.615 544.497L207.473 577.34" stroke="#FFC423" stroke-width="0.5"/>
<path d="M216.1 557.967L206.845 563.322" stroke="#FFC423" stroke-width="0.5"/>
<path d="M208.365 556.334L214.579 564.955" stroke="#FFC423" stroke-width="0.5"/>
<path d="M214.58 564.955L227.996 564.133L216.1 557.967L214.618 544.498L208.366 556.334L194.95 557.156L206.846 563.322L207.474 577.341L214.58 564.955Z" stroke="#FFC423" stroke-width="0.5"/>
<path d="M238.331 489.159L205.285 482.183" stroke="#FFC423" stroke-width="0.5"/>
<path d="M224.951 469.523L217.809 502.367" stroke="#FFC423" stroke-width="0.5"/>
<path d="M226.436 482.992L217.181 488.347" stroke="#FFC423" stroke-width="0.5"/>
<path d="M218.701 481.36L224.915 489.981" stroke="#FFC423" stroke-width="0.5"/>
<path d="M224.916 489.981L238.332 489.159L226.436 482.993L224.953 469.524L218.702 481.36L205.286 482.183L217.182 488.348L217.809 502.367L224.916 489.981Z" stroke="#FFC423" stroke-width="0.5"/>
<path d="M224.915 489.981L238.331 489.159L226.435 482.993L224.952 469.524L218.701 481.36L205.285 482.183L217.181 488.348L217.808 502.367L224.915 489.981Z" stroke="#FFC423" stroke-width="0.5"/>
<path d="M505.048 145.202L472.002 138.226" stroke="#FFC423" stroke-width="0.5"/>
<path d="M491.667 125.567L484.525 158.411" stroke="#FFC423" stroke-width="0.5"/>
<path d="M493.151 139.036L483.897 144.391" stroke="#FFC423" stroke-width="0.5"/>
<path d="M485.417 137.403L491.631 146.024" stroke="#FFC423" stroke-width="0.5"/>
<path d="M491.632 146.024L505.048 145.202L493.152 139.036L491.669 125.567L485.418 137.403L472.002 138.226L483.898 144.391L484.525 158.41L491.632 146.024Z" stroke="#FFC423" stroke-width="0.5"/>
<path d="M156.616 612.928L123.57 605.951" stroke="#FFC423" stroke-width="0.5"/>
<path d="M143.235 593.293L136.093 626.136" stroke="#FFC423" stroke-width="0.5"/>
<path d="M144.72 606.762L135.466 612.117" stroke="#FFC423" stroke-width="0.5"/>
<path d="M136.985 605.129L143.2 613.75" stroke="#FFC423" stroke-width="0.5"/>
<path d="M143.2 613.75L156.616 612.928L144.72 606.762L143.238 593.293L136.986 605.129L123.57 605.951L135.466 612.117L136.094 626.136L143.2 613.75Z" stroke="#FFC423" stroke-width="0.5"/>
<circle cx="560.971" cy="127.956" r="6.00546" transform="rotate(76.3001 560.971 127.956)" stroke="#FFC423"/>
<circle cx="302.579" cy="423.072" r="3.00273" transform="rotate(76.3001 302.579 423.072)" stroke="#FFC423" stroke-width="0.5"/>
<circle cx="350.144" cy="338.937" r="3.00273" transform="rotate(76.3001 350.144 338.937)" stroke="#FFC423" stroke-width="0.5"/>
<circle cx="185.016" cy="604.622" r="2.75273" transform="rotate(76.3001 185.016 604.622)" stroke="#FFC423"/>
<circle cx="206.363" cy="527.147" r="2.75273" transform="rotate(76.3001 206.363 527.147)" stroke="#FFC423"/>
<circle cx="423.092" cy="321.925" r="2.75273" transform="rotate(76.3001 423.092 321.925)" stroke="#FFC423"/>
</g>
<defs>
<filter id="filter0_d_354_611" x="111.552" y="117.349" width="467.026" height="527.758" filterUnits="userSpaceOnUse" color-interpolation-filters="sRGB">
<feFlood flood-opacity="0" result="BackgroundImageFix"/>
<feColorMatrix in="SourceAlpha" type="matrix" values="0 0 0 0 0 0 0 0 0 0 0 0 0 0 0 0 0 0 127 0" result="hardAlpha"/>
<feOffset dy="7"/>
<feGaussianBlur stdDeviation="5.55"/>
<feComposite in2="hardAlpha" operator="out"/>
<feColorMatrix type="matrix" values="0 0 0 0 0.956315 0 0 0 0 0.927279 0 0 0 0 0.375584 0 0 0 1 0"/>
<feBlend mode="normal" in2="BackgroundImageFix" result="effect1_dropShadow_354_611"/>
<feBlend mode="normal" in="SourceGraphic" in2="effect1_dropShadow_354_611" result="shape"/>
</filter>
</defs>
</svg>
