<svg width="782" height="483" viewBox="0 0 782 483" fill="none" xmlns="http://www.w3.org/2000/svg">
<g filter="url(#filter0_d_421_94)">
<path d="M270.324 183.619L325.139 188.126" stroke="#FFC423"/>
<path d="M292.373 208.33L295.95 164.819" stroke="#FFC423"/>
<path d="M288.833 178.172L302.563 194.234" stroke="#FFC423"/>
<path d="M303.782 179.401L287.613 193.005" stroke="#FFC423"/>
<path d="M288.752 179.161L271.321 183.701L287.613 193.005L292.374 208.33L302.563 194.234L325.139 188.126L303.782 179.401L295.951 164.819L288.752 179.161Z" stroke="#FFC423"/>
<path d="M369.783 182.321L363.819 223.438" stroke="#FFC423"/>
<path d="M350.12 197.789L382.758 202.522" stroke="#FFC423"/>
<path d="M373.024 196.531L360.271 206.131" stroke="#FFC423"/>
<path d="M371.398 207.745L361.898 194.917" stroke="#FFC423"/>
<path d="M372.282 196.423L369.675 183.069L361.897 194.917L350.12 197.789L360.271 206.131L363.819 223.438L371.397 207.745L382.758 202.523L372.282 196.423Z" stroke="#FFC423"/>
<path d="M185.02 244.859L246.811 249.939" stroke="#FFC423"/>
<path d="M210.812 272.864L214.877 223.42" stroke="#FFC423"/>
<path d="M205.603 238.587L222.242 255.884" stroke="#FFC423"/>
<path d="M223.543 240.062L204.303 254.409" stroke="#FFC423"/>
<path d="M206.404 239.694L187.024 244.888L205.111 255.426L210.369 272.828L221.721 256.791L246.822 249.804L223.107 239.935L214.434 223.384L206.404 239.694Z" stroke="#FFC423"/>
<circle cx="114.11" cy="314.079" r="7.5" transform="rotate(-85.3002 114.11 314.079)" stroke="#FFC423"/>
<circle cx="406.689" cy="99.3293" r="7.5" transform="rotate(-85.3002 406.689 99.3293)" stroke="#FFC423"/>
<path d="M27.1416 310.119L73.9836 313.97" stroke="#FFC423" stroke-width="0.5"/>
<path d="M49.1934 334.83L53.0117 288.353" stroke="#FFC423" stroke-width="0.5"/>
<path d="M44.6738 316.539L56.4498 307.551" stroke="#FFC423" stroke-width="0.5"/>
<path d="M55.6377 317.439L45.4876 306.649" stroke="#FFC423" stroke-width="0.5"/>
<path d="M45.4873 306.65L27.1413 310.119L44.6743 316.538L49.1908 334.83L55.6373 317.44L73.9833 313.97L56.4503 307.551L53.0117 288.353L45.4873 306.65Z" stroke="#FFC423" stroke-width="0.5"/>
<path d="M346.779 132.384L377.871 134.94" stroke="#FFC423" stroke-width="0.5"/>
<path d="M361.417 148.786L363.951 117.937" stroke="#FFC423" stroke-width="0.5"/>
<path d="M358.417 136.646L366.233 130.68" stroke="#FFC423" stroke-width="0.5"/>
<path d="M365.693 137.244L358.956 130.082" stroke="#FFC423" stroke-width="0.5"/>
<path d="M358.956 130.082L346.779 132.385L358.417 136.645L361.415 148.786L365.693 137.243L377.871 134.941L366.233 130.68L363.951 117.937L358.956 130.082Z" stroke="#FFC423" stroke-width="0.5"/>
<path d="M285.918 246.369L317.009 248.925" stroke="#FFC423" stroke-width="0.5"/>
<path d="M300.556 262.771L303.09 231.922" stroke="#FFC423" stroke-width="0.5"/>
<path d="M297.556 250.63L305.372 244.665" stroke="#FFC423" stroke-width="0.5"/>
<path d="M304.832 251.229L298.095 244.067" stroke="#FFC423" stroke-width="0.5"/>
<path d="M298.095 244.066L285.918 246.369L297.555 250.63L300.553 262.771L304.832 251.228L317.009 248.925L305.372 244.665L303.089 231.922L298.095 244.066Z" stroke="#FFC423" stroke-width="0.5"/>
<path d="M146.529 281.518L173.419 297.244" stroke="#FFC423" stroke-width="0.5"/>
<path d="M152.523 302.597L168.335 275.933" stroke="#FFC423" stroke-width="0.5"/>
<path d="M155.146 290.377L164.803 288.385" stroke="#FFC423" stroke-width="0.5"/>
<path d="M161.438 294.058L158.51 284.704" stroke="#FFC423" stroke-width="0.5"/>
<path d="M158.51 284.704L146.529 281.518L155.145 290.377L152.522 302.596L161.439 294.058L173.419 297.244L164.803 288.385L168.335 275.933L158.51 284.704Z" stroke="#FFC423" stroke-width="0.5"/>
<path d="M436.446 62.5361L463.336 78.2619" stroke="#FFC423" stroke-width="0.5"/>
<path d="M442.44 83.6152L458.252 56.9515" stroke="#FFC423" stroke-width="0.5"/>
<path d="M445.062 71.3955L454.72 69.4031" stroke="#FFC423" stroke-width="0.5"/>
<path d="M451.355 75.0757L448.427 65.7222" stroke="#FFC423" stroke-width="0.5"/>
<path d="M448.427 65.7224L436.446 62.5362L445.062 71.3953L442.439 83.6142L451.356 75.0758L463.336 78.262L454.72 69.4029L458.252 56.9513L448.427 65.7224Z" stroke="#FFC423" stroke-width="0.5"/>
<path d="M405.574 125.141L432.464 140.866" stroke="#FFC423" stroke-width="0.5"/>
<path d="M411.568 146.219L427.38 119.556" stroke="#FFC423" stroke-width="0.5"/>
<path d="M414.19 134L423.848 132.007" stroke="#FFC423" stroke-width="0.5"/>
<path d="M420.483 137.68L417.555 128.327" stroke="#FFC423" stroke-width="0.5"/>
<path d="M417.555 128.326L405.574 125.14L414.19 133.999L411.567 146.218L420.484 137.68L432.464 140.866L423.848 132.007L427.38 119.555L417.555 128.326Z" stroke="#FFC423" stroke-width="0.5"/>
<path d="M417.555 128.326L405.574 125.14L414.19 133.999L411.567 146.218L420.484 137.68L432.464 140.866L423.848 132.007L427.38 119.555L417.555 128.326Z" stroke="#FFC423" stroke-width="0.5"/>
<path d="M72.0244 348.508L98.914 364.234" stroke="#FFC423" stroke-width="0.5"/>
<path d="M78.0186 369.587L93.8304 342.924" stroke="#FFC423" stroke-width="0.5"/>
<path d="M80.6406 357.368L90.2984 355.375" stroke="#FFC423" stroke-width="0.5"/>
<path d="M86.9336 361.048L84.0048 351.694" stroke="#FFC423" stroke-width="0.5"/>
<path d="M84.0049 351.695L72.0245 348.508L80.6404 357.368L78.017 369.586L86.9337 361.048L98.9141 364.234L90.2982 355.375L93.8302 342.924L84.0049 351.695Z" stroke="#FFC423" stroke-width="0.5"/>
<circle cx="18.0632" cy="347.321" r="5.5" transform="rotate(-85.3002 18.0632 347.321)" stroke="#FFC423"/>
<circle cx="330.11" cy="164.273" r="2.75" transform="rotate(-85.3002 330.11 164.273)" stroke="#FFC423" stroke-width="0.5"/>
<circle cx="263.99" cy="224.057" r="2.75" transform="rotate(-85.3002 263.99 224.057)" stroke="#FFC423" stroke-width="0.5"/>
<circle cx="485.847" cy="39.6143" r="2.5" transform="rotate(-85.3002 485.847 39.6143)" stroke="#FFC423"/>
<circle cx="444.611" cy="101.202" r="2.5" transform="rotate(-85.3002 444.611 101.202)" stroke="#FFC423"/>
<circle cx="195.197" cy="217.709" r="2.5" transform="rotate(-85.3002 195.197 217.709)" stroke="#FFC423"/>
</g>
<path d="M774.606 205.711L539.986 12.0085C518.812 15.2755 515.884 31.8766 517.067 39.7688L751.687 233.471C770.793 227.114 774.927 212.315 774.606 205.711Z" fill="#0D0D0D"/>
<path d="M563.714 31.5988L539.518 11.6222C519.015 15.8035 515.695 31.8712 516.599 39.3824L540.795 59.3591C546.425 41.275 558.42 33.3172 563.714 31.5988Z" fill="#E6E7E8"/>
<path d="M728.735 214.521L752.932 234.498C773.435 230.317 776.754 214.249 775.851 206.738L751.654 186.761C746.024 204.845 734.029 212.803 728.735 214.521Z" fill="#E6E7E8"/>
<defs>
<filter id="filter0_d_421_94" x="0.9625" y="32.5143" width="498.985" height="355.916" filterUnits="userSpaceOnUse" color-interpolation-filters="sRGB">
<feFlood flood-opacity="0" result="BackgroundImageFix"/>
<feColorMatrix in="SourceAlpha" type="matrix" values="0 0 0 0 0 0 0 0 0 0 0 0 0 0 0 0 0 0 127 0" result="hardAlpha"/>
<feOffset dy="7"/>
<feGaussianBlur stdDeviation="5.55"/>
<feComposite in2="hardAlpha" operator="out"/>
<feColorMatrix type="matrix" values="0 0 0 0 0.956315 0 0 0 0 0.927279 0 0 0 0 0.375584 0 0 0 1 0"/>
<feBlend mode="normal" in2="BackgroundImageFix" result="effect1_dropShadow_421_94"/>
<feBlend mode="normal" in="SourceGraphic" in2="effect1_dropShadow_421_94" result="shape"/>
</filter>
</defs>
</svg>
