<svg width="115" height="86" viewBox="0 0 115 86" fill="none" xmlns="http://www.w3.org/2000/svg">
<path d="M112.836 74.4137L38.6192 1.87561C31.3292 2.38152 29.8599 7.94063 30.0365 10.6569L104.253 83.195C110.929 81.5797 112.757 76.6677 112.836 74.4137Z" fill="#0D0D0D"/>
<path d="M46.1252 9.21182L38.4712 1.73092C31.3829 2.56675 29.7959 7.9334 29.8885 10.5123L37.5425 17.9932C39.9724 12.0071 44.2768 9.64475 46.1252 9.21182Z" fill="#E6E7E8"/>
<path d="M96.9929 76.0987L104.647 83.5796C111.735 82.7438 113.322 77.3771 113.23 74.7983L105.576 67.3174C103.146 73.3034 98.8414 75.6658 96.9929 76.0987Z" fill="#E6E7E8"/>
<path d="M17.5 0L16.2652 3.45492H12.2692L15.502 5.59017L14.2672 9.04508L17.5 6.90983L20.7328 9.04508L19.498 5.59017L22.7308 3.45492H18.7348L17.5 0Z" fill="#EFD77E"/>
<path d="M10 9L9.55097 10.7275H8.09789L9.27346 11.7951L8.82443 13.5225L10 12.4549L11.1756 13.5225L10.7265 11.7951L11.9021 10.7275H10.449L10 9Z" fill="#F4EC60"/>
<path d="M3.5 5L2.7142 7.07295H0.171302L2.22855 8.3541L1.44275 10.4271L3.5 9.1459L5.55725 10.4271L4.77145 8.3541L6.8287 7.07295H4.2858L3.5 5Z" fill="#F4EC60"/>
</svg>
